<svg width="224" height="205" viewBox="0 0 224 205" fill="none" xmlns="http://www.w3.org/2000/svg">
<mask id="mask0_3_402" style="mask-type:alpha" maskUnits="userSpaceOnUse" x="25" y="2" width="174" height="196">
<path d="M96 9.2376C103.809 4.72934 107.713 2.47521 112 2.47521C116.287 2.47521 120.191 4.72934 128 9.2376L182.603 40.7624C190.411 45.2707 194.315 47.5248 196.459 51.2376C198.603 54.9504 198.603 59.4587 198.603 68.4752V131.525C198.603 140.541 198.603 145.05 196.459 148.762C194.315 152.475 190.411 154.729 182.603 159.238L128 190.762C120.191 195.271 116.287 197.525 112 197.525C107.713 197.525 103.809 195.271 96 190.762L41.3975 159.238C33.5889 154.729 29.6846 152.475 27.5411 148.762C25.3975 145.05 25.3975 140.541 25.3975 131.525V68.4752C25.3975 59.4587 25.3975 54.9504 27.5411 51.2376C29.6846 47.5248 33.5889 45.2707 41.3975 40.7624L96 9.2376Z" fill="#D9D9D9"/>
</mask>
<g mask="url(#mask0_3_402)">
<path d="M96 9.2376C103.809 4.72934 107.713 2.47521 112 2.47521C116.287 2.47521 120.191 4.72934 128 9.2376L182.603 40.7624C190.411 45.2707 194.315 47.5248 196.459 51.2376C198.603 54.9504 198.603 59.4587 198.603 68.4752V131.525C198.603 140.541 198.603 145.05 196.459 148.762C194.315 152.475 190.411 154.729 182.603 159.238L128 190.762C120.191 195.271 116.287 197.525 112 197.525C107.713 197.525 103.809 195.271 96 190.762L41.3975 159.238C33.5889 154.729 29.6846 152.475 27.5411 148.762C25.3975 145.05 25.3975 140.541 25.3975 131.525V68.4752C25.3975 59.4587 25.3975 54.9504 27.5411 51.2376C29.6846 47.5248 33.5889 45.2707 41.3975 40.7624L96 9.2376Z" fill="white"/>
<path d="M198.603 150V50L112 99.5V200L198.603 150Z" fill="#767676"/>
<path d="M25.3975 150L112 200V99.5L25.3975 50V150Z" fill="#444444"/>
<path d="M198.603 50L112 0L25.3975 50L112 99.5L198.603 50Z" fill="#2B2B2B"/>
</g>
<g opacity="0.4" filter="url(#filter0_f_3_402)">
<path d="M160 72H64L112.142 141L160 72Z" fill="white"/>
</g>
<path d="M160 72H64L112.142 141L160 72Z" fill="url(#paint0_linear_3_402)"/>
<defs>
<filter id="filter0_f_3_402" x="0" y="8" width="224" height="197" filterUnits="userSpaceOnUse" color-interpolation-filters="sRGB">
<feFlood flood-opacity="0" result="BackgroundImageFix"/>
<feBlend mode="normal" in="SourceGraphic" in2="BackgroundImageFix" result="shape"/>
<feGaussianBlur stdDeviation="32" result="effect1_foregroundBlur_3_402"/>
</filter>
<linearGradient id="paint0_linear_3_402" x1="64" y1="72" x2="149.5" y2="131" gradientUnits="userSpaceOnUse">
<stop stop-color="white"/>
<stop offset="1" stop-color="white"/>
</linearGradient>
</defs>
</svg>
